<?xml version="1.0" encoding="utf-8"?>
<!-- Generator: Adobe Illustrator 16.0.0, SVG Export Plug-In . SVG Version: 6.00 Build 0)  -->
<!DOCTYPE svg PUBLIC "-//W3C//DTD SVG 1.1//EN" "http://www.w3.org/Graphics/SVG/1.1/DTD/svg11.dtd">
<svg version="1.1" id="Layer_1" xmlns="http://www.w3.org/2000/svg" xmlns:xlink="http://www.w3.org/1999/xlink" x="0px" y="0px"
	 width="50px" height="50px" viewBox="0 0 50 50" enable-background="new 0 0 50 50" xml:space="preserve">
<g>
	<path fill="#EFAC01" d="M24.999,2.035c12.662,0,22.965,10.304,22.965,22.965c0,12.666-10.303,22.966-22.965,22.966
		C12.335,47.967,2.033,37.666,2.033,25C2.033,12.339,12.335,2.035,24.999,2.035 M24.999,0.333C11.375,0.333,0.333,11.378,0.333,25
		c0,13.625,11.042,24.667,24.666,24.667c13.624,0,24.668-11.043,24.668-24.667C49.667,11.378,38.623,0.333,24.999,0.333
		L24.999,0.333z"/>
	<g opacity="0.15">
		<path fill-rule="evenodd" clip-rule="evenodd" d="M20.106,30.152c-1.54-0.021-3.238-0.301-4.813-1.127
			c-0.689-0.359-1.31-0.814-1.749-1.471c-0.673-1.004-0.605-2.121,0.177-3.045c0.713-0.842,1.644-1.361,2.667-1.706
			c2.625-0.883,5.262-0.879,7.887,0.002c0.963,0.322,1.851,0.8,2.54,1.568c1.081,1.205,1,2.653-0.188,3.763
			c-0.858,0.797-1.889,1.258-2.995,1.576C22.551,30.021,21.446,30.15,20.106,30.152z"/>
		<path fill-rule="evenodd" clip-rule="evenodd" d="M29.224,19.924c-1.166-0.005-2.679-0.241-4.113-0.867
			c-0.904-0.395-1.729-0.91-2.293-1.751c-0.652-0.973-0.573-2.104,0.185-3.006c0.694-0.827,1.601-1.333,2.596-1.692
			c1.902-0.682,3.86-0.819,5.854-0.54c1.297,0.181,2.531,0.547,3.648,1.249c0.602,0.376,1.128,0.836,1.467,1.468
			c0.501,0.94,0.369,1.951-0.335,2.787c-0.718,0.85-1.661,1.353-2.687,1.719C32.275,19.745,30.956,19.926,29.224,19.924z"/>
		<path fill-rule="evenodd" clip-rule="evenodd" d="M27.533,27.879c0,0.502,0.059,1.012-0.014,1.502
			c-0.123,0.803-0.646,1.383-1.27,1.863c-0.985,0.76-2.12,1.182-3.329,1.426c-2.2,0.451-4.376,0.367-6.507-0.365
			c-1.029-0.355-1.973-0.861-2.69-1.715c-0.405-0.486-0.644-1.037-0.644-1.682c0-0.344,0-0.691,0.031-1.047
			c0.048,0.133,0.09,0.266,0.145,0.393c0.326,0.762,0.91,1.291,1.592,1.721c1.136,0.719,2.397,1.084,3.716,1.26
			c1.715,0.232,3.418,0.15,5.089-0.324c1.077-0.305,2.085-0.752,2.921-1.52C27.036,28.969,27.377,28.473,27.533,27.879z"/>
		<path fill-rule="evenodd" clip-rule="evenodd" d="M13.081,30.656c0.561,1.59,1.857,2.34,3.314,2.84
			c2.611,0.898,5.248,0.881,7.868,0.004c1.015-0.338,1.958-0.838,2.648-1.688c0.275-0.338,0.464-0.75,0.656-1.068
			c0.245,1.508-0.325,2.713-1.738,3.592c-1.164,0.723-2.445,1.104-3.789,1.277c-1.906,0.244-3.782,0.121-5.605-0.516
			c-1.037-0.359-1.991-0.865-2.714-1.725c-0.405-0.482-0.644-1.035-0.641-1.68C13.081,31.348,13.081,31.004,13.081,30.656z"/>
		<path fill-rule="evenodd" clip-rule="evenodd" d="M22.373,17.637c0.452,1.356,1.497,2.077,2.708,2.609
			c1.857,0.815,3.812,1.012,5.815,0.825c1.318-0.125,2.587-0.438,3.762-1.06c0.732-0.387,1.391-0.867,1.831-1.588
			c0.148-0.245,0.251-0.519,0.354-0.734c0.202,1.309-0.132,2.463-1.279,3.322c-1.075,0.808-2.298,1.247-3.603,1.488
			c-1.736,0.322-3.471,0.287-5.193-0.112c-0.114-0.027-0.226-0.069-0.324-0.129c-0.676-0.407-1.393-0.725-2.152-0.94
			c-0.573-0.162-0.948-0.574-1.306-1c-0.43-0.512-0.641-1.108-0.612-1.786C22.384,18.234,22.373,17.936,22.373,17.637z"/>
		<path fill-rule="evenodd" clip-rule="evenodd" d="M28.236,23.881c0.833,0,1.637,0.044,2.433-0.01
			c1.586-0.108,3.103-0.489,4.464-1.351c0.675-0.428,1.249-0.956,1.566-1.713c0.053-0.127,0.093-0.262,0.155-0.389
			c-0.009,0.736,0.117,1.484-0.258,2.181c-0.349,0.642-0.862,1.118-1.468,1.503c-1.14,0.725-2.405,1.114-3.735,1.27
			c-0.756,0.088-1.521,0.083-2.28,0.11c-0.071,0.002-0.196-0.064-0.21-0.118C28.78,24.831,28.549,24.347,28.236,23.881z"/>
		<path fill-rule="evenodd" clip-rule="evenodd" d="M28.971,28.266c0-0.527,0-1.029,0-1.557c0.115,0,0.237-0.002,0.362,0
			c1.457,0.027,2.882-0.154,4.261-0.652c1-0.363,1.938-0.842,2.619-1.69c0.272-0.339,0.46-0.752,0.649-1.07
			c0.246,1.507-0.314,2.711-1.723,3.592c-1.14,0.715-2.396,1.09-3.714,1.275C30.631,28.277,29.834,28.328,28.971,28.266z"/>
		<path fill-rule="evenodd" clip-rule="evenodd" d="M28.971,31.049c0-0.52,0-1.023,0-1.553c0.16,0,0.332,0,0.502,0.002
			c1.419,0.014,2.805-0.176,4.142-0.66c1.001-0.365,1.937-0.85,2.616-1.701c0.266-0.336,0.446-0.74,0.63-1.057
			c0.252,1.502-0.312,2.717-1.719,3.598c-1.135,0.709-2.38,1.1-3.693,1.264c-0.706,0.09-1.426,0.096-2.137,0.133
			C29.212,31.08,29.111,31.061,28.971,31.049z"/>
	</g>
	<g>
		<path fill-rule="evenodd" clip-rule="evenodd" fill="#EFAC01" d="M20.106,30.686c-1.54-0.021-3.238-0.301-4.815-1.125
			c-0.689-0.361-1.308-0.816-1.749-1.473c-0.673-1.004-0.605-2.12,0.179-3.045c0.713-0.842,1.644-1.361,2.667-1.706
			c2.625-0.883,5.262-0.879,7.887,0c0.963,0.324,1.851,0.802,2.54,1.571c1.081,1.205,1,2.652-0.188,3.762
			c-0.858,0.795-1.889,1.258-2.997,1.576C22.551,30.555,21.444,30.684,20.106,30.686z"/>
		<path fill-rule="evenodd" clip-rule="evenodd" fill="#EFAC01" d="M29.224,20.457c-1.166-0.006-2.679-0.239-4.113-0.867
			c-0.904-0.395-1.729-0.91-2.295-1.75c-0.65-0.973-0.573-2.104,0.185-3.006c0.696-0.827,1.603-1.335,2.598-1.692
			c1.902-0.682,3.86-0.819,5.854-0.54c1.297,0.181,2.531,0.547,3.648,1.249c0.602,0.376,1.128,0.836,1.467,1.469
			c0.501,0.94,0.369,1.95-0.335,2.785c-0.718,0.852-1.661,1.354-2.687,1.721C32.273,20.277,30.956,20.46,29.224,20.457z"/>
		<path fill-rule="evenodd" clip-rule="evenodd" fill="#B6A05E" d="M27.531,28.414c0,0.5,0.061,1.012-0.014,1.5
			c-0.121,0.805-0.644,1.385-1.268,1.863c-0.985,0.76-2.122,1.182-3.329,1.428c-2.2,0.447-4.376,0.365-6.507-0.369
			c-1.029-0.352-1.975-0.859-2.69-1.715c-0.405-0.484-0.646-1.035-0.644-1.678c0-0.348,0-0.693,0.031-1.047
			c0.048,0.129,0.088,0.264,0.145,0.391c0.326,0.762,0.91,1.289,1.59,1.721c1.138,0.719,2.399,1.086,3.718,1.26
			c1.715,0.232,3.418,0.15,5.089-0.322c1.077-0.307,2.085-0.754,2.921-1.523C27.034,29.502,27.377,29.006,27.531,28.414z"/>
		<path fill-rule="evenodd" clip-rule="evenodd" fill="#B6A05E" d="M13.081,31.189c0.561,1.59,1.857,2.338,3.314,2.84
			c2.611,0.898,5.246,0.881,7.868,0.006c1.015-0.34,1.958-0.838,2.648-1.689c0.275-0.338,0.462-0.748,0.656-1.068
			c0.245,1.508-0.325,2.713-1.738,3.592c-1.164,0.723-2.445,1.104-3.791,1.277c-1.904,0.246-3.78,0.121-5.605-0.514
			c-1.035-0.361-1.989-0.865-2.712-1.725c-0.405-0.484-0.644-1.037-0.641-1.682C13.081,31.883,13.081,31.535,13.081,31.189z"/>
		<path fill-rule="evenodd" clip-rule="evenodd" fill="#B6A05E" d="M22.373,18.171c0.452,1.354,1.497,2.077,2.708,2.609
			c1.855,0.815,3.811,1.012,5.815,0.825c1.318-0.125,2.587-0.438,3.762-1.06c0.732-0.387,1.391-0.867,1.828-1.588
			c0.151-0.245,0.252-0.519,0.356-0.736c0.201,1.311-0.132,2.465-1.279,3.325c-1.075,0.807-2.298,1.245-3.603,1.487
			c-1.736,0.322-3.471,0.287-5.193-0.113c-0.114-0.025-0.226-0.068-0.324-0.127c-0.676-0.407-1.393-0.725-2.152-0.94
			c-0.573-0.162-0.948-0.574-1.306-1c-0.43-0.513-0.641-1.11-0.612-1.787C22.384,18.768,22.373,18.47,22.373,18.171z"/>
		<path fill-rule="evenodd" clip-rule="evenodd" fill="#B6A05E" d="M28.236,24.413c0.833,0,1.637,0.046,2.433-0.008
			c1.586-0.108,3.103-0.489,4.464-1.353c0.675-0.426,1.248-0.954,1.564-1.711c0.055-0.129,0.095-0.262,0.157-0.389
			c-0.009,0.736,0.117,1.484-0.258,2.182c-0.349,0.642-0.862,1.118-1.468,1.501c-1.14,0.727-2.405,1.116-3.735,1.271
			c-0.756,0.089-1.521,0.083-2.282,0.108c-0.069,0.004-0.194-0.061-0.208-0.115C28.78,25.365,28.549,24.881,28.236,24.413z"/>
		<path fill-rule="evenodd" clip-rule="evenodd" fill="#B6A05E" d="M28.971,28.797c0-0.523,0-1.027,0-1.555
			c0.115,0,0.237,0,0.362,0.002c1.457,0.027,2.882-0.156,4.258-0.654c1.003-0.361,1.939-0.841,2.622-1.689
			c0.272-0.339,0.458-0.751,0.649-1.07c0.246,1.507-0.314,2.712-1.723,3.593c-1.142,0.713-2.396,1.086-3.714,1.275
			C30.631,28.811,29.832,28.863,28.971,28.797z"/>
		<path fill-rule="evenodd" clip-rule="evenodd" fill="#B6A05E" d="M28.971,31.584c0-0.521,0-1.025,0-1.555
			c0.16,0,0.332,0,0.502,0.002c1.417,0.014,2.805-0.174,4.142-0.66c1.001-0.365,1.937-0.85,2.614-1.701
			c0.268-0.336,0.448-0.74,0.632-1.057c0.252,1.504-0.314,2.717-1.719,3.598c-1.135,0.707-2.38,1.1-3.693,1.264
			c-0.706,0.09-1.426,0.096-2.137,0.135C29.212,31.615,29.111,31.596,28.971,31.584z"/>
	</g>
</g>
</svg>
