<?xml version="1.0" encoding="utf-8"?>
<!-- Generator: Adobe Illustrator 16.0.0, SVG Export Plug-In . SVG Version: 6.00 Build 0)  -->
<!DOCTYPE svg PUBLIC "-//W3C//DTD SVG 1.1//EN" "http://www.w3.org/Graphics/SVG/1.1/DTD/svg11.dtd">
<svg version="1.1" id="Layer_1" xmlns="http://www.w3.org/2000/svg" xmlns:xlink="http://www.w3.org/1999/xlink" x="0px" y="0px"
	 width="128px" height="32px" viewBox="0 0 128 32" enable-background="new 0 0 128 32" xml:space="preserve">
<g>
	<path fill="#0056A2" d="M79.193,31.754l0.389-1.885c0.354,0.939,2.022,1.885,4.359,1.885h16.149c3.5,0,5.097-1.494,5.448-3.18
		l1.283-6.402h16.459l4.67-21.988h-10.002l-0.389,2.042c-0.974-1.494-2.762-2.042-4.162-2.042H87.561l-0.389,2.042
		c-0.973-1.494-2.768-2.042-4.166-2.042H57.093l-0.466,2.042c-0.975-1.494-2.767-2.042-4.169-2.042H24.289L23.86,1.675
		c-0.624-1.018-3.228-1.921-5.486-1.921C9.031-0.012,2.264,6.351-0.035,15.576c-0.037,0.156,0,0.312,0.118,0.391
		c0.157,0.079,0.391,0.04,0.581-0.078c1.209-0.941,2.844-1.728,4.209-2.039c0.192,3.454,1.787,6.124,4.395,7.418
		c0.977,0.471,2.764,0.865,4.438,0.865c2.686,0,5.37-0.592,6.884-1.689l-0.502,1.964h7.591l-1.325,6.167
		c-0.431,1.922,0.542,3.099,3.266,3.18h6.772H79.193z"/>
	<g>
		<polygon fill="#FFFFFF" points="29.205,9.765 33.562,8.705 34.729,3.128 38.814,3.128 35.467,18.834 31.381,18.834 32.705,12.674 
			27.529,13.808 26.441,18.834 22.316,18.834 25.66,3.128 29.783,3.128 28.428,9.646 27.688,13.062 27.803,12.983 29.127,9.803 		
			"/>
		<polygon fill="#FFFFFF" points="67.143,13.926 67.572,15.143 67.65,14.868 66.598,10.235 68.077,3.128 72.164,3.128 
			68.816,18.834 64.341,18.834 60.604,7.84 60.141,6.585 60.1,6.899 61.229,11.928 59.75,18.834 55.662,18.834 59.008,3.128 
			63.486,3.128 		"/>
		<path fill="#FFFFFF" d="M86.445,7.449c0.661-3.456-2.452-4.358-4.166-4.358h-7.391l-3.427,15.743h7.898
			c3.579,0,5.681-2.235,6.149-4.357c0.391-1.883-0.311-2.946-1.088-3.613C85.393,10.077,86.095,9.097,86.445,7.449z M81.775,14.24
			c-0.194,1.021-1.169,1.768-2.647,1.768H76.17l0.699-3.222l-0.036-0.077l-2.842-0.471l-0.038-0.039h3.074h2.918
			C81.614,12.199,82.007,13.145,81.775,14.24z M82.979,7.682c-0.117,0.59-0.466,1.535-2.45,1.535H77.65l0.508-2.475l-0.044-0.117
			l-2.837-0.396l-0.039-0.077h3.035h2.916C82.749,6.153,83.059,7.093,82.979,7.682z"/>
		<path fill="#FFFFFF" d="M49.012,2.541c-4.863,0-8.834,3.377-9.888,8.282c-1.089,4.951,1.482,8.208,6.384,8.208
			c4.902,0,8.639-3.258,9.727-8.208C56.287,5.918,53.91,2.541,49.012,2.541z M50.797,10.823c-0.658,2.476-2.252,4.517-4.706,4.517
			c-2.45,0-3.149-2.041-2.528-4.517c0.586-2.473,2.412-4.593,4.867-4.593C50.878,6.229,51.383,8.35,50.797,10.823z"/>
		<path fill="#FFFFFF" d="M98.545,3.128h4.085l-2.14,10.325c-0.659,2.867-3.54,5.535-7.86,5.535c-4.319,0-6.108-2.668-5.485-5.535
			L89.32,3.128h4.125l-2.178,10.129c-0.076,0.353-0.076,0.943,0.389,1.414c0.275,0.354,0.781,0.705,1.712,0.705
			c0.897,0,1.598-0.352,2.104-0.705c0.541-0.471,0.814-0.942,0.934-1.414L98.545,3.128z"/>
		<path fill="#FFFFFF" d="M111.932,3.128h-7.041l-3.35,15.706h4.086l1.051-4.791l-0.077-0.117l-2.687-0.393v-0.08h2.881h0.855h0.117
			c0.078,0,0.041,0.08,0.116,0.08l0.038,0.119c0.041,0,0.041,0,0.041,0.037l2.061,5.145h4.551l-2.723-5.734
			c0-0.037,3.932-0.506,4.75-5.14C117.224,4.503,115.047,3.128,111.932,3.128z M113.139,8.036c-0.352,1.452-1.399,2.041-3.115,2.041
			h-2.49l0.7-3.452l-0.036-0.12l-2.961-0.394V6.035h3.154h2.22C112.595,6.035,113.41,6.818,113.139,8.036z"/>
		<polygon fill="#FFFFFF" points="119.947,3.128 124.033,3.128 120.689,18.834 116.602,18.834 		"/>
		<path fill="#FFFFFF" d="M17.918,2.581c2.061,0,4.279,0.863,5.022,1.726l-1.716,3.926c-2.178-1.649-7.979-3.376-17.354,3.576
			C7.141,6.779,13.246,2.462,17.918,2.581L17.918,2.581z"/>
		<path fill="#FFFFFF" d="M7.839,12.279c0.234-3.811,5.76-4.244,5.76-4.244L13.404,8.39c-0.387,0.627-0.663,1.375-0.817,1.965
			c-0.231,1.569-0.036,2.981,1.052,3.846c1.008,0.785,3.462,1.334,6.613-1.057l1.014,3.49c-1.287,1.296-4.673,2.354-6.619,2.354
			C10.174,18.988,7.568,16.046,7.839,12.279L7.839,12.279z"/>
		<polygon fill="#FFFFFF" points="32.16,24.371 34.186,24.371 33.874,25.864 31.537,25.864 30.992,28.455 29.321,28.455 
			30.682,22.094 34.962,22.094 34.652,23.546 32.043,23.546 31.575,25.627 31.656,25.59 32.081,24.408 		"/>
		<polygon fill="#FFFFFF" points="54.652,23.546 51.656,23.546 51.695,23.546 52.783,23.701 52.783,23.743 51.811,28.455 
			50.139,28.455 51.191,23.546 49.358,23.546 49.709,22.094 54.965,22.094 		"/>
		<path fill="#FFFFFF" d="M38.893,21.938c-1.984,0-3.58,1.334-4.006,3.338c-0.432,2.001,0.58,3.299,2.564,3.299
			c1.986,0,3.506-1.298,3.932-3.299C41.811,23.271,40.84,21.938,38.893,21.938z M39.595,25.275
			c-0.275,0.979-0.897,1.804-1.909,1.804c-0.973,0-1.246-0.825-1.012-1.804c0.234-0.984,0.975-1.846,1.946-1.846
			C39.635,23.43,39.824,24.252,39.595,25.275z"/>
		<path fill="#FFFFFF" d="M65.471,22.094h-1.597L60.1,28.455h1.674l0.623-1.061h2.258l0.194,1.061h1.669L65.471,22.094z
			 M64.262,26.059l-0.039-0.042h-0.932h-0.192l1.124-1.882l0.432,2.944L64.262,26.059z"/>
		<path fill="#FFFFFF" d="M60.489,23.82c0.234-1.372-0.974-1.727-1.675-1.727h-2.995l-1.362,6.361h3.189
			c1.441,0,2.301-0.944,2.453-1.809c0.156-0.744-0.117-1.178-0.428-1.453C60.061,24.879,60.37,24.488,60.489,23.82z M58.62,26.567
			c-0.112,0.433-0.504,0.709-1.089,0.709h-1.167l0.272-1.294l-0.038-0.041l-1.13-0.158l-0.037-0.041h1.244h1.207
			C58.543,25.742,58.699,26.139,58.62,26.567z M59.088,23.937c-0.041,0.235-0.193,0.63-0.972,0.63h-1.17l0.196-1.06l-1.167-0.157
			v-0.039h2.413C59.008,23.311,59.126,23.701,59.088,23.937z"/>
		<polygon fill="#FFFFFF" points="69.285,27 69.01,28.256 69.089,28.182 69.516,27.041 69.555,27 71.891,27 71.581,28.455 
			67.339,28.455 68.701,22.094 70.335,22.094 		"/>
		<path fill="#FFFFFF" d="M82.514,24.41c-0.388,0.667-0.547,1.729,0.114,2.236c0.396,0.275,1.365,0.512,2.571-0.433l0.427,1.337
			c-0.585,0.513-1.71,0.939-2.603,0.939c-1.988,0.041-2.963-1.374-2.611-3.297c0.391-1.883,1.944-3.333,3.933-3.377
			c0.893,0,1.903,0.355,2.253,0.825l-0.972,1.415c-0.854-1.257-3.5-0.511-4.045,0.272l-0.118,0.081c0,0,0.816-0.511,1.399-0.474
			C82.862,23.937,82.628,24.172,82.514,24.41L82.514,24.41z"/>
		<polygon fill="#FFFFFF" points="88.118,27 87.847,28.256 87.924,28.182 88.351,27.041 88.432,27 90.725,27 90.453,28.455 
			86.17,28.455 87.535,22.094 89.168,22.094 		"/>
		<path fill="#FFFFFF" d="M46.091,21.938c-1.942,0-3.542,1.334-3.97,3.338c-0.426,2.001,0.586,3.299,2.572,3.299
			s3.502-1.298,3.927-3.299C49.047,23.271,48.075,21.938,46.091,21.938z M46.832,25.275c-0.271,0.979-0.936,1.804-1.906,1.804
			c-0.975,0-1.285-0.825-1.014-1.804c0.236-0.984,0.975-1.846,1.948-1.846C46.832,23.43,47.062,24.252,46.832,25.275z"/>
		<path fill="#FFFFFF" d="M103.295,23.82c0.27-1.372-0.979-1.727-1.675-1.727h-2.998l-1.36,6.361h3.189
			c1.441,0,2.298-0.944,2.455-1.809c0.154-0.744-0.121-1.178-0.434-1.453C102.906,24.879,103.178,24.488,103.295,23.82z
			 M101.424,26.567c-0.117,0.433-0.467,0.709-1.089,0.709H99.17l0.273-1.294l-0.041-0.041l-1.129-0.158v-0.041h1.206h1.208
			C101.349,25.742,101.503,26.139,101.424,26.567z M101.893,23.937c-0.041,0.235-0.195,0.63-0.971,0.63h-1.17l0.191-1.021v-0.039
			l-1.164-0.157v-0.039h1.244h1.168C101.814,23.311,101.932,23.701,101.893,23.937z"/>
		<path fill="#FFFFFF" d="M95.977,22.094h1.674l-0.932,4.239c-0.234,1.178-1.441,2.241-3.154,2.241c-1.752,0-2.492-1.063-2.22-2.241
			l0.899-4.239h1.674l-0.896,4.16c-0.041,0.16-0.041,0.356,0.115,0.551c0.115,0.159,0.35,0.312,0.741,0.312
			c0.347,0,0.622-0.152,0.813-0.312c0.236-0.194,0.35-0.354,0.392-0.551L95.977,22.094z"/>
		<polygon fill="#FFFFFF" points="74.459,27 74.186,28.256 74.223,28.182 74.691,27.041 74.73,27 77.062,27 76.754,28.455 
			72.474,28.455 73.841,22.094 75.51,22.094 		"/>
	</g>
</g>
</svg>
