<?xml version="1.0" encoding="utf-8"?>
<!-- Generator: Adobe Illustrator 16.0.0, SVG Export Plug-In . SVG Version: 6.00 Build 0)  -->
<!DOCTYPE svg PUBLIC "-//W3C//DTD SVG 1.1//EN" "http://www.w3.org/Graphics/SVG/1.1/DTD/svg11.dtd">
<svg version="1.1" id="Layer_1" xmlns="http://www.w3.org/2000/svg" xmlns:xlink="http://www.w3.org/1999/xlink" x="0px" y="0px"
	 width="50px" height="60px" viewBox="0 0 50 60" enable-background="new 0 0 50 60" xml:space="preserve">
<g>
	<g opacity="0.25">
		<rect fill="none" width="50" height="60"/>
	</g>
	<g>
		<path fill="#FFFFFF" d="M27.75,13.506c0,1.516-1.234,2.75-2.75,2.75c-1.515,0-2.748-1.234-2.748-2.75s1.232-2.748,2.748-2.748
			C26.516,10.758,27.75,11.99,27.75,13.506 M29.582,13.506c0-2.531-2.052-4.582-4.582-4.582c-2.529,0-4.582,2.051-4.582,4.582
			s2.053,4.582,4.582,4.582C27.53,18.088,29.582,16.037,29.582,13.506L29.582,13.506z"/>
		<path fill="#FFFFFF" d="M27.75,30c0,1.516-1.234,2.748-2.75,2.748c-1.515,0-2.748-1.232-2.748-2.748s1.232-2.748,2.748-2.748
			C26.516,27.252,27.75,28.484,27.75,30 M29.582,30c0-2.531-2.052-4.582-4.582-4.582c-2.529,0-4.582,2.051-4.582,4.582
			s2.053,4.582,4.582,4.582C27.53,34.582,29.582,32.531,29.582,30L29.582,30z"/>
		<path fill="#FFFFFF" d="M27.75,46.494c0,1.516-1.234,2.748-2.75,2.748c-1.515,0-2.748-1.232-2.748-2.748s1.232-2.75,2.748-2.75
			C26.516,43.744,27.75,44.979,27.75,46.494 M29.582,46.494c0-2.531-2.052-4.582-4.582-4.582c-2.529,0-4.582,2.051-4.582,4.582
			c0,2.529,2.053,4.582,4.582,4.582C27.53,51.076,29.582,49.023,29.582,46.494L29.582,46.494z"/>
	</g>
</g>
</svg>
