<?xml version="1.0" encoding="utf-8"?>
<!-- Generator: Adobe Illustrator 16.0.0, SVG Export Plug-In . SVG Version: 6.00 Build 0)  -->
<!DOCTYPE svg PUBLIC "-//W3C//DTD SVG 1.1//EN" "http://www.w3.org/Graphics/SVG/1.1/DTD/svg11.dtd">
<svg version="1.1" id="Layer_1" xmlns="http://www.w3.org/2000/svg" xmlns:xlink="http://www.w3.org/1999/xlink" x="0px" y="0px"
	 width="100px" height="92px" viewBox="0 0 100 92" enable-background="new 0 0 100 92" xml:space="preserve">
<g>
	<defs>
		<rect id="SVGID_1_" x="-0.425" y="-0.039" width="100" height="92"/>
	</defs>
	<clipPath id="SVGID_2_">
		<use xlink:href="#SVGID_1_"  overflow="visible"/>
	</clipPath>
	<path clip-path="url(#SVGID_2_)" fill="#FFFFFF" d="M98.604,45.422c-0.973-2.814-2.099-5.585-2.905-8.444
		c-0.241-0.855-0.435-1.724-0.605-2.6c-0.673-6.98,0.468-9.504,0.468-9.504c-0.784-1.17-1.567-2.092-2.076-3.146
		c-0.955-1.979-1.873-2.335-3.654-1.319c-0.156,0.09-0.338,0.147-0.531,0.185C55.354,18.167,9.41,20.328,9.41,20.328
		c-1.524,0.042-3.325,1.277-4.372,2.496c-0.516,0.603-1.405,2.325-0.214,3.752c0.439,0.527,0.416,1.698,0.201,2.463
		c-0.555,1.978-1.268,3.919-2.05,5.821c-0.423,1.029-1.008,2.035-1.71,2.897c-1.589,1.956-1.205,4.342,1.021,5.549
		c0.717,0.389,1.481,0.69,2.183,1.105c1.582,0.934,3.082,2.023,4.72,2.836c1.229,0.61,1.778-0.017,1.616-1.376
		c-0.09-0.749-0.23-1.646,0.08-2.263c1.252-2.481,2.319-4.944,1.208-7.869c0.586,0.242,1.038,0.434,1.281,0.774
		c1.341,1.873,2.667,3.759,3.924,5.688c0.661,1.012,1.145,2.139,1.752,3.187c0.511,0.885,0.958,1.854,1.658,2.566
		c1.435,1.465,3.031,2.771,4.544,4.163c2.983,2.742,5.805,5.689,8.99,8.171c1.674,1.304,2.329,2.661,2.461,4.621
		c0.32,4.72-0.266,15.434,0.099,20.151c4.066,1.383,16.01,3.629,31.16-0.135c-0.027-1.891-1.242-9.796-1.342-11.689
		c-0.139-2.633-0.36-5.263-0.426-7.897c-0.057-2.213,0.978-3.586,2.924-4.938c3.277-2.277,6.363-4.978,9.025-7.951
		c3.038-3.396,5.523-7.288,8.153-10.835c0.619,1.687,1.067,3.277,1.775,4.742c0.794,1.637,1.262,3.207,0.565,4.998
		c-0.189,0.488-0.093,1.087-0.127,1.633c0.618,0.027,1.316,0.254,1.838,0.043c1.668-0.675,3.453-1.274,4.846-2.354
		c1.426-1.101,2.468-2.709,3.604-4.154C98.957,46.327,98.729,45.781,98.604,45.422z M84.646,34.033
		c-2.28,1.983-4.605,3.914-6.928,5.85c-1.881,1.567-3.685,3.258-5.699,4.635c-2.945,2.011-5.997,3.887-9.112,5.625
		c-1.274,0.712-2.872,0.82-4.25,1.379c-0.544,0.221-0.893,0.922-1.509,1.6c-0.198-0.336-0.535-0.646-0.51-0.919
		c0.061-0.629,0.114-1.406,0.495-1.834c2.308-2.595,1.852-5.72,1.837-8.767c-0.016-2.869-2.377-5.218-5.619-5.612
		c-2.938-0.358-5.414,1.333-6.071,4.184c-0.333,1.44-0.846,2.899-0.833,4.345c0.016,1.666,0.543,3.323,0.81,4.989
		c0.17,1.072,0.269,2.156,0.197,3.306c-1.317-1.572-2.81-2.193-4.778-2.44c-1.735-0.219-3.371-1.294-5.032-2.031
		c-1.631-0.724-3.059-1.714-4.056-3.25c-0.162-0.253-0.498-0.509-0.78-0.544c-3.543-0.437-5.373-3.312-7.766-5.389
		c-0.68-0.589-1.629-0.965-2.106-1.672c-1.686-2.504-4.805-3.295-7.099-6.066c3.654-0.354,6.811-0.845,9.979-0.934
		c8.641-0.241,17.289-0.501,25.93-0.4c8.631,0.104,17.258,0.656,25.889,0.961c1.732,0.063,3.475-0.19,5.206-0.13
		c1.146,0.04,2.284,0.38,3.923,0.675C85.789,32.729,85.293,33.469,84.646,34.033z"/>
</g>
</svg>
