<?xml version="1.0" encoding="utf-8"?>
<!-- Generator: Adobe Illustrator 16.0.0, SVG Export Plug-In . SVG Version: 6.00 Build 0)  -->
<!DOCTYPE svg PUBLIC "-//W3C//DTD SVG 1.1//EN" "http://www.w3.org/Graphics/SVG/1.1/DTD/svg11.dtd">
<svg version="1.1" id="Layer_1" xmlns="http://www.w3.org/2000/svg" xmlns:xlink="http://www.w3.org/1999/xlink" x="0px" y="0px"
	 width="100px" height="92px" viewBox="0 0 100 92" enable-background="new 0 0 100 92" xml:space="preserve">
<g>
	<g>
		<g>
			<ellipse opacity="0.5" fill="#231F20" cx="63.909" cy="60.161" rx="8.287" ry="8.123"/>
			<ellipse fill="#EF4136" cx="64.283" cy="59.099" rx="8.287" ry="8.126"/>
		</g>
		<g>
			<path fill="#FFFFFF" d="M91.863,73.371l-12.958-10.68l-0.03,0.031c-2.752-2.091-7.248-1.42-10.397,1.668
				s-3.836,7.496-1.704,10.193l-0.02,0.019c0.453,0.376,11.021,12.893,11.021,12.893l0.006-0.006c0.1,0.122,0.197,0.246,0.312,0.358
				c2.549,2.498,7.82,1.385,11.771-2.49c3.953-3.874,5.089-9.042,2.54-11.541C92.235,73.65,92.054,73.505,91.863,73.371z"/>
			<path fill="#231F20" d="M74.553,70.348l-0.003,0.001c0.007,0.005,0.015,0.008,0.021,0.013L74.553,70.348z"/>
			<path fill="#FFFFFF" d="M75.775,55.42c-4.583,0.14-8.865,1.749-12.069,4.89c-2.712,2.658-4.292,6.061-4.811,9.769l-1.321-0.058
				l1.187,1.271l0.838,0.896L60.36,71.5l1.444-1.298l-1.276-0.056c0.542-3.266,2.001-6.266,4.411-8.629
				c2.977-2.917,6.939-4.411,11.188-4.55c0.427-0.017,0.69-0.363,0.584-0.791l-0.002-0.021C76.604,55.74,76.191,55.401,75.775,55.42
				z"/>
			<path fill="#0088CF" d="M78.23,65.262l-0.436-0.354c-0.006-0.007-0.014-0.011-0.02-0.016c-2.219-1.599-5.547-1.249-7.781,0.941
				c-2.439,2.391-2.648,6.062-0.469,8.199l3.613,3.355c0,0,6.211-0.974,8.599-8.428L78.23,65.262z"/>
		</g>
		<path fill="#FFFFFF" d="M48.282,2.141c-24.348,0-44.158,19.42-44.158,43.289s19.81,43.29,44.158,43.29
			c24.349,0,44.158-19.421,44.158-43.29S72.631,2.141,48.282,2.141z M90.844,45.43c0,6.198-1.396,12.081-3.881,17.375h-5.912V28.056
			h5.912C89.447,33.349,90.844,39.23,90.844,45.43z M9.601,28.056h6.086v34.749H9.601C7.117,57.511,5.72,51.628,5.72,45.43
			C5.72,39.23,7.117,33.349,9.601,28.056z M10.377,64.369h5.311h1.596v-1.564V28.056v-1.564h-1.596h-5.311
			C17.315,13.2,31.307,4.02,47.484,3.725v33.469c-4.288,0.396-7.644,3.93-7.644,8.236c0,4.306,3.356,7.842,7.644,8.236v33.468
			C31.307,86.84,17.315,77.658,10.377,64.369z M49.08,87.134V53.666c4.289-0.395,7.645-3.931,7.645-8.236
			c0-4.307-3.356-7.841-7.645-8.236V3.725C65.257,4.02,79.248,13.2,86.188,26.491h-5.137h-1.596v1.564v34.749v1.564h1.596h5.137
			C79.248,77.658,65.257,86.84,49.08,87.134z"/>
	</g>
</g>
</svg>
