<?xml version="1.0" encoding="utf-8"?>
<!-- Generator: Adobe Illustrator 16.0.0, SVG Export Plug-In . SVG Version: 6.00 Build 0)  -->
<!DOCTYPE svg PUBLIC "-//W3C//DTD SVG 1.1//EN" "http://www.w3.org/Graphics/SVG/1.1/DTD/svg11.dtd">
<svg version="1.1" id="Layer_1" xmlns="http://www.w3.org/2000/svg" xmlns:xlink="http://www.w3.org/1999/xlink" x="0px" y="0px"
	 width="100px" height="92px" viewBox="0 0 100 92" enable-background="new 0 0 100 92" xml:space="preserve">
<g>
	<path fill="#FFFFFF" d="M16.245,52.129c2.763,6.25,7.505,8.475,20.366,8.424c14.65-0.059,16.887,5.965,16.887,5.965
		s2.241-6.023,10.579-5.611c11.245,0.557,14.055-1.848,15.922-2.918c1.866-1.07,2.29-2.514,5.532-2.947
		c3.24-0.436,2.234-4.328,2.234-4.328c2.598-1.694,3.067-3.188,3.067-3.188s8.288-4.207,8.288-8.301
		c0.062-1.728-2.166-2.751-2.166-2.751s-19.993-9.596-39.272-9.596c-19.278,0-29.603,8.14-43.218,3.206
		C4.413,26.441,0.08,31.709,0.08,31.709c4.861,0.319,6.91,4.343,6.91,4.343C7.802,47.158,16.245,52.129,16.245,52.129"/>
	<g>
		<path fill="#0088CF" d="M21.108,39.858c0,0-4.682-3.399-7.928-8.345c0,0,5.417,4.871,26.442-0.392
			c23.125-5.787,39.462,0.553,55.386,6.533c0.991,0.374,3.499,1.373,0.57,4.203c-1.164,1.126-1.776,1.498-1.776,1.498
			s-6.51-0.36-17.606-3.49c-11.165-3.153-17.683-5.091-31.965-2.322C35.488,39.236,27.533,40.792,21.108,39.858z"/>
		<path fill="#0056A2" d="M44.231,37.542c-8.743,1.694-16.698,3.249-23.123,2.315c6.676,5.32,13.084,4.911,13.084,4.911
			c-18.913,4.059-24.94-7.368-24.94-7.368c3.705,15.931,15.466,16.884,25.494,17.572c15.775,0.643,18.751,7.725,18.751,7.725
			c2.643-3.275,8.884-3.994,13.967-3.654c5.087,0.336,9.213-0.895,12.293-3.236c3.08-2.34,5.508-2.666,5.508-2.666l0.001-0.004
			c0.859-0.068,0.72-1.062,0.72-1.062l-0.253-2.28c2.77-1.786,3.71-3.679,3.71-3.679c2.511-1.442,3.536-2.11,4.359-2.76
			c0,0-6.51-0.36-17.606-3.49C65.031,36.712,58.514,34.773,44.231,37.542z"/>
		<path fill="#0056A2" d="M33.989,58.58c-14.464-0.039-15.435-6.104-15.435-6.104c0.262,0.369,2.329,3.23,16.081,3.729
			c13.752,0.494,17.298,6.082,17.298,6.082S48.455,58.621,33.989,58.58z"/>
		<path fill="#FFFFFF" d="M87.759,46c0,0-3.936,0.166-12.104-2.325c-8.166-2.493-22.485-5.487-31.172,0.277
			c-8.685,5.76-14.613,4.94-19.219,4.278c0,0,0,0.003,0.003,0.005c0.001,0.005,0.001,0.005,0.005,0.009
			c0.002,0.008,0.007,0.013,0.013,0.019c0.234,0.355,2.67,3.69,10.545,3.987c0.213,0.01,0.426,0.016,0.646,0.02
			c8.129,0.145,12.794,1.344,17.043,8.225c0,0,3.381-3.463,13.542-3.002c10.533,0.482,10.822-3.996,17.467-5.842l0.006-1.543
			l-1.504,1.191l0.119-1.303l-1.823,1.48l0.282-1.609l-2.27,1.887l0.395-2.047l-2.601,2.336l0.413-2.522l-2.977,2.86l0.813-3.047
			l-3.549,3.459l1.304-3.669l-4.001,3.786c0,0-2.669-2.732,0.11-6.145l-0.011,2.063l2.871-2.795l-0.382,2.762l2.924-2.578
			l-0.343,2.528l2.812-2.296l-0.39,2.246l2.51-2.061l-0.338,2.026l2.383-1.899l-0.329,1.881l2.105-1.663l-0.319,1.624l1.88-1.534
			l-0.31,1.523l1.781-1.375l-0.255,1.326C85.839,48.543,87.466,46.774,87.759,46z"/>
		<path fill="#FFFFFF" d="M73.485,39.103l-9.409-3.05l5.557,4.329C69.633,40.381,72.477,40.167,73.485,39.103z"/>
		<path fill="#0056A2" d="M12.925,33.689c-3.464-3.564-7.874-2.613-8.829-2.351c0.009,0,0.415-0.008,1.033,0.275
			c0.012,0.005,0.023,0.01,0.033,0.015c0.02,0.008,0.038,0.017,0.057,0.026c0.007,0.005,0.013,0.006,0.02,0.012
			c0.944,0.462,2.392,1.601,4.369,4.327c6.632,9.145,18.204,8.64,18.204,8.64C19.028,42.396,16.033,36.885,12.925,33.689z"/>
		<path fill="#0056A2" d="M51.517,42.432l0.606,0.013c0,0-3.283,4.071-2.437,9.684c0,0,1.431-8.186,5.271-10.389
			C54.957,41.74,53.046,41.914,51.517,42.432z"/>
		<path fill="#0056A2" d="M50.974,42.623c0,0-1.422,0.436-2.88,1.276l0.484,0.017c-1.881,3.266-0.964,6.879-0.961,6.91l0.091,0.439
			C48,45.222,50.974,42.623,50.974,42.623z"/>
		<path fill="#0056A2" d="M47.403,44.326c0,0-0.923,0.582-1.921,1.577l0.331,0.004c-0.777,2.221,0.003,4.174,0.009,4.192l0.142,0.43
			l-0.014-0.451C45.827,46.702,47.388,44.344,47.403,44.326z"/>
		<path fill="#CDD2D5" d="M73.303,54.475c-2.101-0.053-3.373-0.76-4.14-1.59l-0.025,0.025c0,0-1.046-1.066-1.147-2.704
			c-0.005-0.073-0.005-0.116-0.005-0.116s-16.399,2.953-17.225-1.985c-0.75,2.175-1.075,4.024-1.075,4.024s-1.696-1.342-1.523-4.084
			c-0.229,0.941-0.396,2.009-0.455,3.221c0,0-1.371-0.717-1.653-3.096c-0.086,0.586-0.129,1.227-0.105,1.908l0.014,0.451
			c0,0-0.501-0.366-0.793-1.209c0,0-11.755,3.885-19.907-1.09c0,0,0,0.003,0.003,0.005c0.001,0.005,0.001,0.005,0.005,0.009
			c0.002,0.008,0.007,0.013,0.013,0.019c0.234,0.355,2.67,3.69,10.545,3.987c0.213,0.01,0.426,0.016,0.646,0.02
			c8.129,0.145,12.794,1.344,17.043,8.225c0,0,3.381-3.463,13.542-3.002c10.533,0.482,10.822-3.996,17.467-5.842
			C80.013,51.934,78.592,54.611,73.303,54.475z"/>
	</g>
</g>
</svg>
