<?xml version="1.0" encoding="utf-8"?>
<!-- Generator: Adobe Illustrator 16.0.0, SVG Export Plug-In . SVG Version: 6.00 Build 0)  -->
<!DOCTYPE svg PUBLIC "-//W3C//DTD SVG 1.1//EN" "http://www.w3.org/Graphics/SVG/1.1/DTD/svg11.dtd">
<svg version="1.1" id="Layer_1" xmlns="http://www.w3.org/2000/svg" xmlns:xlink="http://www.w3.org/1999/xlink" x="0px" y="0px"
	 width="100px" height="92px" viewBox="0 0 100 92" enable-background="new 0 0 100 92" xml:space="preserve">
<g>
	<defs>
		<rect id="SVGID_1_" x="-0.53" y="-0.039" width="100" height="92"/>
	</defs>
	<clipPath id="SVGID_2_">
		<use xlink:href="#SVGID_1_"  overflow="visible"/>
	</clipPath>
	<g clip-path="url(#SVGID_2_)">
		<path fill="#FFFFFF" d="M83.047,62.741c-3.922,0-7.115,3.192-7.115,7.116c0,3.925,3.193,7.117,7.115,7.117
			c3.926,0,7.117-3.192,7.117-7.117C90.164,65.934,86.973,62.741,83.047,62.741z M83.047,76.449c-3.633,0-6.59-2.958-6.59-6.592
			s2.957-6.593,6.59-6.593c3.637,0,6.595,2.959,6.595,6.593S86.684,76.449,83.047,76.449z"/>
		<polygon fill="#FFFFFF" points="82.852,67.288 82.852,65.27 80.76,64.371 78.961,65.708 78.961,68.14 80.712,68.771 		"/>
		<polygon fill="#FFFFFF" points="87.203,68.14 87.203,65.708 85.404,64.371 83.312,65.27 83.312,67.288 85.451,68.771 		"/>
		<polygon fill="#FFFFFF" points="81.756,72.419 80.686,73.732 81.975,75.652 84.236,75.652 85.451,73.732 84.479,72.419 		"/>
		<polygon fill="#FFFFFF" points="80.396,69.207 78.893,68.673 77.234,70.522 78.158,72.685 80.297,73.392 81.358,72.054 		"/>
		<polygon fill="#FFFFFF" points="87.34,68.673 85.838,69.207 84.873,72.054 85.936,73.392 88.075,72.685 89,70.522 		"/>
		<path fill="#FFFFFF" d="M77.092,75.966l-4.271,4.37c-0.075,0.077-0.074,0.202,0.005,0.279c0.038,0.036,0.087,0.057,0.138,0.057
			s0.102-0.021,0.141-0.06l4.271-4.37c0.076-0.079,0.076-0.202-0.004-0.279C77.293,75.887,77.168,75.889,77.092,75.966z"/>
		<path fill="#FFFFFF" d="M75.524,71.448c-0.079-0.077-0.204-0.076-0.279,0.001l-2.791,2.855c-0.075,0.079-0.073,0.203,0.003,0.28
			c0.039,0.037,0.088,0.056,0.138,0.056c0.052,0,0.104-0.021,0.142-0.059l2.791-2.855C75.604,71.647,75.603,71.522,75.524,71.448z"
			/>
		<path fill="#FFFFFF" d="M81.609,77.741l-2.791,2.855c-0.077,0.078-0.073,0.202,0.003,0.279c0.039,0.039,0.088,0.057,0.14,0.057
			c0.05,0,0.102-0.02,0.141-0.06l2.79-2.854c0.077-0.079,0.077-0.204-0.003-0.281C81.811,77.663,81.686,77.664,81.609,77.741z"/>
	</g>
	<path clip-path="url(#SVGID_2_)" fill="#FFFFFF" d="M57.927,14.057c0,0,3.36-4.167,1.345-6.184
		c-2.018-2.017-6.617-5.512-9.694-2.823s0.015,7.394-5.497,7.663c-5.512,0.269-11.561,0.403-15.325,0.403
		c0,0-7.662-4.303-9.948-6.991c-2.285-2.688-8.469-7.123-6.453-4.569c2.017,2.553,1.346,2.619,0.594,2.018
		c-0.751-0.603-4.147-1.925-2.675-0.662s3.816,1.984,2.434,1.894c-1.382-0.091-5.019,0-3.035,0.631s4.087,1.232,2.374,1.593
		s-3.072,1.094,0.414,1.319c3.487,0.225,3.824-1.35,6.748,2.249c2.924,3.599,5.511,7.086,8.998,7.873s9.56,0.675,9.109,4.386
		c-0.449,3.712,0.787,9.56,2.137,12.597c1.35,3.036-0.111,4.273-0.898,5.511c-0.788,1.237-0.451,2.812-0.788,5.849
		c-0.337,3.036-1.463,5.623-3.262,3.148c-1.799-2.474-4.948-2.699-8.772-3.262c-3.824-0.562-8.323-9.222-10.685-6.86
		c-2.362,2.362-3.923,4.499-5.954,5.398c-2.031,0.9-3.943,7.648-0.682,5.174c3.262-2.475,6.748-5.849,11.247-2.137
		c4.499,3.711,9.897,6.86,12.371,8.322c2.475,1.462,6.749,5.849,9.785,2.362s3.824-4.949,5.174-2.699
		c1.35,2.249,5.849,4.948,7.647,6.86c1.8,1.912,1.574,5.511,1.125,8.322c-0.45,2.812,2.361,4.274,4.948,7.985
		s3.712,5.736,3.824,7.647c0.112,1.912,1.462,3.6,4.836,1.912c3.374-1.687,9.897-6.298,6.411-5.623s-5.624,0.112-7.761,0.225
		c0,0-2.699-5.173-3.823-8.772c-1.125-3.599-3.487-5.174-3.262-8.21c0.225-3.036,0.337-8.885-1.35-10.122
		c-1.688-1.237-5.174-7.423-7.198-8.772c0,0,1.124-8.548,0.562-11.247c-0.562-2.699,3.938-9.56,3.938-12.146
		c0,0,2.249-0.449,4.386,2.137c2.137,2.587,6.974,1.125,10.122,2.138c3.148,1.012,4.611,4.386,6.073,2.924s0.675-4.273-1.912-4.386
		c-2.587-0.113-8.322-5.062-13.608-5.849C61.947,21.281,56.848,15.7,57.927,14.057z"/>
</g>
</svg>
