<?xml version="1.0" encoding="utf-8"?>
<!-- Generator: Adobe Illustrator 16.0.0, SVG Export Plug-In . SVG Version: 6.00 Build 0)  -->
<!DOCTYPE svg PUBLIC "-//W3C//DTD SVG 1.1//EN" "http://www.w3.org/Graphics/SVG/1.1/DTD/svg11.dtd">
<svg version="1.1" id="Layer_1" xmlns="http://www.w3.org/2000/svg" xmlns:xlink="http://www.w3.org/1999/xlink" x="0px" y="0px"
	 width="100px" height="92px" viewBox="0 0 100 92" enable-background="new 0 0 100 92" xml:space="preserve">
<g>
	<defs>
		<rect id="SVGID_1_" x="-0.122" y="0.185" width="100" height="92"/>
	</defs>
	<clipPath id="SVGID_2_">
		<use xlink:href="#SVGID_1_"  overflow="visible"/>
	</clipPath>
	<g clip-path="url(#SVGID_2_)">
		<polygon fill="#FFFFFF" points="21.12,60.212 49.878,76.324 78.637,60.212 78.637,51.666 49.878,67.212 21.12,51.666 		"/>
		<polygon fill="#FFFFFF" points="21.12,44.388 49.878,60.501 78.637,44.388 78.637,35.842 49.878,51.389 21.12,35.842 		"/>
		<path fill="#FFFFFF" d="M63.779,15.897c-0.062-0.584-0.107-1.195-0.121-1.851c-0.007-0.329-0.144-0.643-0.379-0.872
			c-2.783-2.717-6.688-2.921-10.431-3.109c-1.563-0.078-3.186-0.16-4.694-0.428c-5.789-1.035-11.388-3.432-14.613-6.256
			c-1.623-1.422-3.369-2.172-5.05-2.175c-1.561-0.003-2.973,0.628-3.982,1.78c-1.744,1.991-2.05,5.466,0.819,7.979l1.304,1.143
			l-1.556,1.775c-0.455,0.52-0.401,1.312,0.117,1.765c0.136,0.118,0.29,0.198,0.451,0.249h0.674c0.238-0.06,0.465-0.167,0.639-0.365
			l1.556-1.777l1.676,1.469l-0.59,0.674h-3.281c-0.222,0.056-0.452,0.069-0.674,0h-7.92v55.783l32.155,18.816l32.155-18.816V15.897
			H63.779z M53.722,12.616c2.878,0.161,5.55,0.447,7.454,2.029c0.018,0.432,0.049,0.848,0.087,1.252
			c0.056,0.586,0.136,1.138,0.23,1.668c0.821,4.648,2.965,7.214,4.34,8.418c0.814,0.713,1.706,1.27,2.62,1.645L59.639,37.69
			l-7.875-6.898l1.425-13.227l0.18-1.668L53.722,12.616z M48.894,12.247c0.778,0.095,1.55,0.176,2.328,0.225l-0.37,3.426
			l-0.18,1.668l-1.209,11.212l-2.147-1.881l1.005-9.331l0.18-1.668L48.894,12.247z M44.133,11.271
			c0.757,0.209,1.519,0.394,2.291,0.557l-0.438,4.069l-0.18,1.668l-0.788,7.318l-2.146-1.881l0.585-5.438l0.18-1.668L44.133,11.271z
			 M26.978,9.082c-1.665-1.459-1.556-3.339-0.586-4.446c0.525-0.599,1.268-0.93,2.095-0.929c1.071,0.001,2.249,0.538,3.409,1.555
			c2.374,2.079,5.885,3.927,9.802,5.267l-0.578,5.369l-0.18,1.668l-0.368,3.424l-3.909-3.424l-1.904-1.668L26.978,9.082z
			 M80.363,70.724L49.878,88.564L19.393,70.724V17.565h8.976c-0.091,0.429,0.028,0.89,0.38,1.198
			c0.521,0.456,1.31,0.403,1.765-0.116l0.948-1.082l0.608-0.693l0.793,0.693l0.884,0.774l-1.556,1.776
			c-0.455,0.52-0.403,1.309,0.117,1.764c0.518,0.454,1.309,0.402,1.764-0.116l1.556-1.776l13.056,11.436l-1.556,1.776
			c-0.455,0.519-0.402,1.31,0.117,1.764c0.522,0.457,1.311,0.403,1.765-0.115l1.556-1.776l1.677,1.469l-1.556,1.775
			c-0.455,0.52-0.404,1.309,0.116,1.764s1.309,0.402,1.764-0.117l1.557-1.775l4.809,4.212c0.52,0.455,1.311,0.4,1.764-0.116
			L71.68,27.739c0.314-0.358,0.399-0.859,0.221-1.298c-0.182-0.438-0.592-0.738-1.064-0.772c-1.107-0.084-2.299-0.641-3.355-1.566
			c-1.068-0.937-2.709-2.912-3.444-6.537h16.327V70.724z"/>
	</g>
</g>
</svg>
