<?xml version="1.0" encoding="utf-8"?>
<!-- Generator: Adobe Illustrator 16.0.0, SVG Export Plug-In . SVG Version: 6.00 Build 0)  -->
<!DOCTYPE svg PUBLIC "-//W3C//DTD SVG 1.1//EN" "http://www.w3.org/Graphics/SVG/1.1/DTD/svg11.dtd">
<svg version="1.1" id="Layer_1" xmlns="http://www.w3.org/2000/svg" xmlns:xlink="http://www.w3.org/1999/xlink" x="0px" y="0px"
	 width="100px" height="92px" viewBox="0 0 100 92" enable-background="new 0 0 100 92" xml:space="preserve">
<g>
	<defs>
		<rect id="SVGID_1_" x="6.729" y="6.48" width="85.826" height="78.96"/>
	</defs>
	<clipPath id="SVGID_2_">
		<use xlink:href="#SVGID_1_"  overflow="visible"/>
	</clipPath>
	<g clip-path="url(#SVGID_2_)">
		<path fill="#FFFFFF" d="M54.42,80.02h-9.65l0.001-15.731c0.002-13.336,0.004-26.672-0.03-40.007
			c-0.002-0.763-0.212-1.524-0.498-1.809c-2.529-2.523-3.712-4.634-2.279-7.959c1.399-3.238,4.526-5.32,7.931-5.173
			c2.184,0.079,4.392,1.101,5.904,2.732c1.314,1.418,2,3.16,1.93,4.905c-0.068,1.7-0.918,3.667-2.068,4.784
			c-0.945,0.918-1.265,1.669-1.262,2.975c0.027,13.604,0.025,27.207,0.023,40.812L54.42,80.02z M46.486,78.303h6.217l0.002-12.755
			c0.002-13.603,0.004-27.204-0.023-40.807c-0.004-1.757,0.513-2.978,1.783-4.21c0.846-0.822,1.497-2.345,1.549-3.622
			c0.052-1.284-0.472-2.588-1.474-3.669c-1.21-1.305-2.969-2.121-4.707-2.185l-0.232-0.004c-2.596,0-4.975,1.626-6.061,4.143
			c-0.971,2.252-0.542,3.612,1.915,6.062c0.924,0.922,1.001,2.544,1.002,3.02c0.034,13.338,0.032,26.675,0.03,40.012L46.486,78.303z
			"/>
	</g>
	<g clip-path="url(#SVGID_2_)">
		<path fill="#FFFFFF" d="M42.14,23.096H26.249v-0.858c0-0.994-0.007-1.978-0.014-2.953c-0.014-1.979-0.028-3.85,0.014-5.757v-1.392
			c0.002-0.068,0.012-0.314,0.092-0.653c0.1-0.73,0.509-1.412,1.169-1.895l0.089-0.065c0.555-0.419,1.302-0.643,2.189-0.643
			l0.137,0.002c0.176,0.006,0.282,0.01,0.395,0.021c0.193,0.016,0.407,0.047,0.627,0.089c3.65,0.705,8.972,2.632,9.196,2.714
			l0.813,0.296l-0.302,0.811c-1.048,2.812-1.711,5.838,0.508,8.925L42.14,23.096z M27.964,21.38h10.974
			c-1.498-2.95-1.033-5.814-0.183-8.345c-1.637-0.568-5.428-1.836-8.12-2.357c-0.167-0.031-0.319-0.054-0.468-0.065
			c-0.089-0.009-0.156-0.01-0.223-0.013l-0.156-0.003c-0.507,0-0.908,0.108-1.19,0.32l-0.044,0.032
			c-0.324,0.25-0.481,0.52-0.528,0.851c-0.051,0.23-0.06,0.342-0.061,0.367l0,1.38c-0.042,1.9-0.029,3.759-0.015,5.725
			C27.957,19.97,27.961,20.672,27.964,21.38z"/>
	</g>
	<g clip-path="url(#SVGID_2_)">
		<path fill="#FFFFFF" d="M72.678,23.096H56.787l0.977-1.359c2.219-3.087,1.557-6.113,0.508-8.925l-0.302-0.811l0.813-0.296
			c0.225-0.082,5.546-2.009,9.183-2.712c0.233-0.044,0.448-0.075,0.657-0.092c0.098-0.01,0.203-0.014,0.309-0.018l0.207-0.004
			c0.879,0,1.621,0.22,2.205,0.652l0.087,0.065c0.646,0.473,1.055,1.153,1.169,1.96c0.066,0.263,0.076,0.508,0.078,0.554v1.436
			c0.042,1.888,0.028,3.758,0.014,5.737c-0.007,0.976-0.014,1.959-0.014,2.953V23.096z M59.988,21.38h10.975
			c0.002-0.708,0.008-1.41,0.013-2.108c0.015-1.966,0.026-3.824-0.015-5.705v-1.431l0,0c-0.001,0-0.011-0.11-0.046-0.26
			c-0.063-0.419-0.23-0.697-0.511-0.902l-0.076-0.057c-0.282-0.212-0.683-0.32-1.189-0.32l-0.094,0.002
			c-0.129,0.004-0.196,0.005-0.269,0.012c-0.165,0.014-0.317,0.036-0.474,0.066c-2.699,0.521-6.493,1.79-8.131,2.358
			C61.021,15.565,61.485,18.431,59.988,21.38z"/>
	</g>
	<g clip-path="url(#SVGID_2_)">
		<polygon fill="#FFFFFF" points="42.465,80.147 12.907,80.147 12.907,47.396 42.455,47.396 42.455,49.112 14.623,49.112 
			14.623,78.431 42.465,78.431 		"/>
	</g>
	<g clip-path="url(#SVGID_2_)">
		<polygon fill="#FFFFFF" points="86.254,80.147 56.695,80.147 56.695,78.431 84.537,78.431 84.537,49.112 56.705,49.112 
			56.705,47.396 86.254,47.396 		"/>
	</g>
	<g clip-path="url(#SVGID_2_)">
		<path fill="#FFFFFF" d="M42.465,45.924H8.881V28.07c-0.003-0.118-0.008-1.369,0.881-2.28c0.387-0.396,1.095-0.87,2.27-0.87h30.434
			v1.716H12.031c-0.465,0-0.803,0.113-1.034,0.346c-0.399,0.401-0.4,1.068-0.4,1.074v16.151h31.867V45.924z"/>
	</g>
	<g clip-path="url(#SVGID_2_)">
		<path fill="#FFFFFF" d="M90.403,45.924H56.819v-1.717h31.867V28.07c0-0.021-0.001-0.688-0.399-1.089
			c-0.23-0.232-0.569-0.346-1.034-0.346H56.819V24.92h30.434c1.175,0,1.883,0.474,2.27,0.87c0.89,0.911,0.884,2.162,0.88,2.302
			L90.403,45.924z"/>
	</g>
</g>
</svg>
