<?xml version="1.0" encoding="utf-8"?>
<!-- Generator: Adobe Illustrator 16.0.0, SVG Export Plug-In . SVG Version: 6.00 Build 0)  -->
<!DOCTYPE svg PUBLIC "-//W3C//DTD SVG 1.1//EN" "http://www.w3.org/Graphics/SVG/1.1/DTD/svg11.dtd">
<svg version="1.1" id="Layer_1" xmlns="http://www.w3.org/2000/svg" xmlns:xlink="http://www.w3.org/1999/xlink" x="0px" y="0px"
	 width="100px" height="92px" viewBox="0 0 100 92" enable-background="new 0 0 100 92" xml:space="preserve">
<g>
	<defs>
		<rect id="SVGID_1_" x="-0.225" y="-0.445" width="100" height="92"/>
	</defs>
	<clipPath id="SVGID_2_">
		<use xlink:href="#SVGID_1_"  overflow="visible"/>
	</clipPath>
	<g clip-path="url(#SVGID_2_)">
		<path fill="#FFFFFF" d="M97.875,57.915L61.146,21.186c-0.799-0.8-2.09-0.8-2.888-0.001l-1.533,1.534l39.616,39.617l1.534-1.535
			C98.672,60.004,98.67,58.711,97.875,57.915z"/>
		<path fill="#FFFFFF" d="M37.744,41.699l24.732,24.731c0.797,0.796,0.798,2.089,0,2.886l-1.533,1.535l-0.694,0.695l11.997,11.996
			c0.797,0.799,2.088,0.799,2.887,0l0.045-0.046l1.489-1.489l16.45-16.449L53.502,25.941L37.744,41.699z M65.803,63.442
			L42.654,40.295l1.761-1.76l23.146,23.147L65.803,63.442z M63.738,55.322L45.684,37.267l1.758-1.76l18.056,18.056L63.738,55.322z"
			/>
		<g>
			<g>
				<path fill="#FFFFFF" d="M42.777,85.111c-0.804,0-1.561-0.313-2.129-0.883L11.747,55.329l18.485-18.484l28.901,28.9
					c0.568,0.567,0.882,1.323,0.883,2.127c0,0.806-0.313,1.562-0.883,2.131l-4.914,4.914l-0.686-0.688
					c-1.174-1.176-3.225-1.176-4.4,0.001c-0.589,0.589-0.913,1.37-0.912,2.202c0,0.831,0.324,1.611,0.911,2.198l0.687,0.686
					l-4.868,4.868C44.337,84.798,43.581,85.111,42.777,85.111z M14.49,55.329L42.02,82.857c0.407,0.405,1.109,0.405,1.516,0
					l3.605-3.605c-0.559-0.826-0.859-1.8-0.859-2.82c0-1.351,0.525-2.619,1.48-3.573c0.954-0.955,2.223-1.481,3.573-1.481
					c1.021,0,1.995,0.301,2.822,0.86l3.605-3.606c0.202-0.203,0.313-0.472,0.313-0.758s-0.111-0.555-0.313-0.757l-27.53-27.528
					L14.49,55.329z"/>
			</g>
			<g>
				<path fill="#FFFFFF" d="M9.69,53.271l-7.695-7.696c-1.172-1.169-1.173-3.078-0.002-4.256l4.907-4.906l0.686,0.66
					c1.184,1.14,3.197,1.124,4.357-0.033c1.187-1.188,1.203-3.142,0.035-4.355L11.317,32l4.904-4.908c1.141-1.14,3.124-1.139,4.26,0
					l7.694,7.694L9.69,53.271z M6.991,39.067l-3.578,3.578c-0.461,0.462-0.463,1.142-0.046,1.558l6.324,6.325l15.742-15.742
					l-6.324-6.323c-0.405-0.405-1.109-0.405-1.516,0L13.97,32.09c1.268,1.957,1.044,4.621-0.656,6.321
					c-0.952,0.951-2.218,1.476-3.563,1.476C8.759,39.887,7.806,39.6,6.991,39.067z"/>
			</g>
		</g>
	</g>
</g>
</svg>
