<?xml version="1.0" encoding="utf-8"?>
<!-- Generator: Adobe Illustrator 16.0.0, SVG Export Plug-In . SVG Version: 6.00 Build 0)  -->
<!DOCTYPE svg PUBLIC "-//W3C//DTD SVG 1.1//EN" "http://www.w3.org/Graphics/SVG/1.1/DTD/svg11.dtd">
<svg version="1.1" id="Layer_1" xmlns="http://www.w3.org/2000/svg" xmlns:xlink="http://www.w3.org/1999/xlink" x="0px" y="0px"
	 width="100px" height="92px" viewBox="0 0 100 92" enable-background="new 0 0 100 92" xml:space="preserve">
<g>
	<defs>
		<rect id="SVGID_1_" x="-0.53" y="0.189" width="100" height="92"/>
	</defs>
	<clipPath id="SVGID_2_">
		<use xlink:href="#SVGID_1_"  overflow="visible"/>
	</clipPath>
	<g clip-path="url(#SVGID_2_)">
		<g>
			<path fill="#FFFFFF" d="M48.949,2.085c-17.413,0-32.543,9.72-40.072,23.909l-2.643-1.321l2.046,4.196l4.666-0.84l-2.616-1.308
				C17.589,13.05,32.168,3.685,48.949,3.685c22.919,0,41.743,17.464,43.387,39.529l1.627-0.11
				C92.263,20.208,72.73,2.085,48.949,2.085z"/>
			<path fill="#FFFFFF" d="M84.984,64.623l2.585,1.343c-7.257,13.674-21.84,23.042-38.62,23.042
				c-22.999,0-41.874-17.582-43.406-39.754l-1.627,0.11c1.588,23.002,21.172,41.243,45.033,41.243
				c17.404,0,32.529-9.712,40.062-23.893l2.631,1.367l-1.979-4.228L84.984,64.623z"/>
		</g>
		<g>
			<path fill="none" d="M41.827,55.079c0.071,0.115,0.15,0.226,0.238,0.331c0-0.036-0.001-0.076-0.001-0.111
				C42.064,55.268,41.957,55.178,41.827,55.079z"/>
			<path fill="none" d="M53.902,55.206c0.027-0.037,0.057-0.072,0.082-0.112c-0.027,0.006-0.053,0.016-0.08,0.02
				C53.904,55.144,53.902,55.176,53.902,55.206z"/>
			<path opacity="0.5" fill="#231F20" d="M41.51,60.596c-0.217-0.224-0.435-0.445-0.644-0.677c0.326-0.165,0.669-0.331,1.028-0.496
				c0.271-1.354,0.178-2.965,0.171-4.013c-0.087-0.105-0.167-0.216-0.238-0.331c-0.174-0.132-0.387-0.282-0.435-0.328
				c-0.911-0.88-0.7-2.084-0.866-3.217c-0.022-0.148-0.32-1.986-0.29-1.993c0,0-1.294,0.146-1.751-1.219
				c0,0-0.686-3.138-1.104-3.839c0,0-0.647-1.734,0.837-1.808c0,0-0.571-3.36-0.571-3.654c0,0-1.218-5.39,1.943-7.16
				c0,0,2.359-2.325,4.911-2.879c0,0,0.571-0.147,0.875,0c0,0,0.026-0.054,0.107-0.131c-0.038-0.313-0.066-0.496-0.066-0.496
				c-1.409-5.684-9.861-6.016-9.861-6.016c-2.475,0.111-2.817,0.849-2.817,0.849c-0.305-0.146-0.876,0-0.876,0
				c-2.551,0.555-4.911,2.879-4.911,2.879c-3.16,1.771-1.941,7.161-1.941,7.161c0,0.295,0.57,3.654,0.57,3.654
				c-1.484,0.073-0.837,1.809-0.837,1.809c0.418,0.7,1.104,3.837,1.104,3.837c0.457,1.366,1.751,1.219,1.751,1.219
				c-0.031,0.008,0.267,1.845,0.29,1.995c0.166,1.131-0.045,2.336,0.866,3.216c0.083,0.081,0.673,0.475,0.671,0.548
				c-0.001,1.911,0.38,5.979-1.98,6.496c-3.329,0.729-6.051,1.534-8.28,2.365c2.611,2.881,5.667,5.363,9.065,7.344
				c2.688-1.364,6.48-2.741,11.852-3.917C40.763,61.646,41.21,61.197,41.51,60.596z"/>
			<path opacity="0.5" fill="#231F20" d="M68.902,56.37c-3.141-0.814-2.361-4.689-2.361-7.05c1.609-0.223,1.497-2.796,1.635-3.906
				c0.082-0.652,0.139-1.521,0.368-2.119c0.667,0.168,1.329,0.096,1.597-0.616c0.199-0.529,0.178-1.209,0.283-1.766
				c0.118-0.628,0.271-1.252,0.496-1.853c0.799-2.142-0.914-1.883-0.914-1.883c1.561-3.358,0.686-8.822,0.686-8.822
				c-1.409-5.684-9.861-6.016-9.861-6.016c-2.475,0.111-2.817,0.849-2.817,0.849c-0.305-0.146-0.876,0-0.876,0
				c-2.551,0.555-4.91,2.879-4.91,2.879c-0.958,0.537-1.512,1.405-1.821,2.356c2.607,0.515,6.706,1.92,7.649,5.725
				c0,0,0.874,5.463-0.686,8.822c0,0,1.713-0.26,0.913,1.882c-0.225,0.602-0.377,1.225-0.495,1.853
				c-0.105,0.558-0.084,1.238-0.283,1.766c-0.269,0.713-0.93,0.785-1.598,0.616c-0.229,0.599-0.286,1.467-0.367,2.12
				c-0.136,1.091-0.033,3.586-1.555,3.887c-0.025,0.04-0.055,0.075-0.082,0.112c-0.01,1.18-0.189,2.707,0.012,4.048
				c0.207,0.09,0.416,0.181,0.621,0.273c-0.145,0.169-0.299,0.328-0.448,0.491c0.304,1.007,0.927,1.82,2.178,2.144
				c0,0,5.893,0.862,10.907,3.159c-0.238,0.276-0.488,0.542-0.738,0.809c3.762-2.083,7.126-4.771,9.957-7.933
				C72.455,56.89,68.902,56.37,68.902,56.37z"/>
			<path opacity="0.5" fill="#231F20" d="M40.866,59.919c0.209,0.231,0.427,0.453,0.644,0.677c0.173-0.348,0.298-0.746,0.384-1.173
				C41.535,59.588,41.191,59.754,40.866,59.919z"/>
			<path opacity="0.5" fill="#231F20" d="M40.866,59.919c0.209,0.231,0.427,0.453,0.644,0.677c0.173-0.348,0.298-0.746,0.384-1.173
				C41.535,59.588,41.191,59.754,40.866,59.919z"/>
			<path opacity="0.5" fill="#231F20" d="M54.535,59.527c-0.205-0.093-0.414-0.184-0.621-0.273c0.039,0.265,0.099,0.519,0.173,0.765
				C54.236,59.855,54.391,59.696,54.535,59.527z"/>
			<path opacity="0.5" fill="#231F20" d="M54.535,59.527c-0.205-0.093-0.414-0.184-0.621-0.273c0.039,0.265,0.099,0.519,0.173,0.765
				C54.236,59.855,54.391,59.696,54.535,59.527z"/>
			<path fill="#FFFFFF" d="M56.265,62.162c-1.251-0.323-1.874-1.137-2.178-2.144c-0.074-0.246-0.134-0.5-0.173-0.765
				c-0.201-1.341-0.021-2.868-0.012-4.048c0-0.03,0.002-0.062,0.002-0.093c0.027-0.004,0.053-0.014,0.08-0.02
				c1.521-0.301,1.419-2.796,1.555-3.887c0.081-0.653,0.139-1.521,0.367-2.12c0.668,0.169,1.329,0.097,1.598-0.616
				c0.199-0.527,0.178-1.208,0.283-1.766c0.118-0.628,0.271-1.251,0.495-1.853c0.8-2.142-0.913-1.882-0.913-1.882
				c1.56-3.359,0.686-8.822,0.686-8.822c-0.943-3.805-5.042-5.21-7.649-5.725c-1.286-0.253-2.212-0.291-2.212-0.291
				c-1.817,0.082-2.483,0.5-2.71,0.719c-0.082,0.077-0.107,0.131-0.107,0.131c-0.305-0.147-0.875,0-0.875,0
				c-2.551,0.554-4.911,2.879-4.911,2.879c-3.161,1.771-1.943,7.16-1.943,7.16c0,0.294,0.571,3.654,0.571,3.654
				c-1.485,0.073-0.837,1.808-0.837,1.808c0.418,0.701,1.104,3.839,1.104,3.839c0.457,1.365,1.751,1.219,1.751,1.219
				c-0.03,0.007,0.268,1.845,0.29,1.993c0.166,1.133-0.045,2.337,0.866,3.217c0.048,0.046,0.261,0.196,0.435,0.328
				c0.129,0.099,0.237,0.188,0.237,0.22c0,0.035,0,0.075,0.001,0.111c0.007,1.048,0.1,2.659-0.171,4.013
				c-0.085,0.427-0.21,0.825-0.384,1.173c-0.299,0.602-0.747,1.05-1.427,1.198c-5.371,1.176-9.164,2.553-11.852,3.917
				c1.81,1.055,3.718,1.963,5.704,2.717c4.273,1.621,8.912,2.521,13.768,2.521c4.867,0,9.516-0.903,13.796-2.53
				c1.708-0.65,3.355-1.416,4.935-2.288c0.25-0.267,0.5-0.532,0.738-0.809C62.157,63.024,56.265,62.162,56.265,62.162z"/>
		</g>
	</g>
</g>
</svg>
